<svg xmlns="http://www.w3.org/2000/svg" xmlns:xlink="http://www.w3.org/1999/xlink" viewBox="5.150000095367432 11.649999618530273 187.260009765625 42.349998474121094" overflow="visible" style="overflow: visible;"><path stroke="none" fill="currentColor" d="M40.04 14.04L40.04 14.04L39.23 14.21L39.23 14.21Q38.96 14.21 38.96 13.87L38.96 13.87L38.96 13.87Q38.96 13.53 39.16 13.43L39.16 13.43L39.16 13.43Q41.50 12.08 43.65 12.08L43.65 12.08L43.65 12.08Q44.60 12.08 45.10 12.81L45.10 12.81L45.10 12.81Q45.61 13.53 45.61 14.73L45.61 14.73L45.61 14.73Q45.61 15.94 43.91 18.95L43.91 18.95L43.91 18.95Q42.21 21.95 39.38 25.74L39.38 25.74L39.38 25.74Q36.55 29.54 32.20 34.05L32.20 34.05L32.20 34.05Q27.86 38.55 23.47 41.98L23.47 41.98L23.47 41.98Q19.09 45.41 15.64 47.17L15.64 47.17L15.64 47.17Q12.18 48.93 9.11 48.93L9.11 48.93L9.11 48.93Q7.13 48.93 6.14 47.57L6.14 47.57L6.14 47.57Q5.15 46.22 5.15 44.49L5.15 44.49L5.15 44.49Q5.15 42.77 6.31 40.08L6.31 40.08L6.31 40.08Q7.47 37.38 9.11 34.73L9.11 34.73L9.11 34.73Q10.74 32.08 12.89 29.15L12.89 29.15L12.89 29.15Q16.11 24.68 19.65 20.53L19.65 20.53L19.65 20.53Q15.72 23.80 14.29 24.37L14.29 24.37L14.29 24.37Q12.87 24.93 11.83 24.93L11.83 24.93L11.83 24.93Q10.79 24.93 10.22 24.06L10.22 24.06L10.22 24.06Q9.64 23.19 9.64 22.18L9.64 22.18L9.64 22.18Q9.64 21.17 10.46 20.15L10.46 20.15L10.46 20.15Q11.28 19.14 12.01 19.14L12.01 19.14L12.01 19.14Q12.28 19.14 12.28 19.34L12.28 19.34L12.28 19.34Q12.28 19.53 12.10 19.79L12.10 19.79L12.10 19.79Q11.91 20.04 11.91 20.14L11.91 20.14L11.91 20.14Q11.91 20.41 12.33 20.41L12.33 20.41L12.33 20.41Q12.74 20.41 13.57 20.04L13.57 20.04L13.57 20.04Q14.40 19.68 17.69 17.48L17.69 17.48L17.69 17.48Q20.97 15.28 22.51 13.84L22.51 13.84L22.51 13.84Q23.12 13.31 24.26 13.31L24.26 13.31L24.26 13.31Q25.39 13.31 26.54 13.85L26.54 13.85L26.54 13.85Q27.69 14.40 27.69 14.97L27.69 14.97L27.69 14.97Q27.69 15.09 27.64 15.20L27.64 15.20L27.64 15.20Q27.59 15.31 27.54 15.69L27.54 15.69L27.54 15.69Q27.49 16.06 27.16 16.59L27.16 16.59L27.16 16.59Q26.83 17.11 22.09 23.73L22.09 23.73L22.09 23.73Q10.25 40.23 10.25 43.24L10.25 43.24L10.25 43.24Q10.25 44.34 11.11 44.34L11.11 44.34L11.11 44.34Q12.28 44.34 15.65 42.20L15.65 42.20L15.65 42.20Q19.02 40.06 21.90 37.46L21.90 37.46L21.90 37.46Q24.78 34.86 27.56 31.98L27.56 31.98L27.56 31.98Q30.35 29.10 33.30 25.71L33.30 25.71L33.30 25.71Q36.25 22.31 38.31 19.14L38.31 19.14L38.31 19.14Q40.36 15.97 40.36 14.33L40.36 14.33L40.36 14.33Q40.36 14.04 40.04 14.04ZM78.88 13.60L81.03 13.75L81.35 13.75L81.35 13.75Q81.49 13.75 81.53 13.77L81.53 13.77L81.53 13.77Q81.57 13.79 81.63 13.81L81.63 13.81L81.63 13.81Q81.69 13.82 81.74 13.87L81.74 13.87L81.74 13.87Q81.86 13.96 82.08 14.09L82.08 14.09L82.08 14.09Q82.37 14.31 82.37 14.60L82.37 14.60L82.37 14.60Q82.37 14.89 81.80 15.81L81.80 15.81L81.80 15.81Q81.23 16.72 78.86 20.36L78.86 20.36L78.86 20.36Q73.39 28.74 69.07 35.89L69.07 35.89L69.07 35.89Q61.60 48.32 61.52 48.39L61.52 48.39L61.52 48.39Q61.45 48.46 61.43 48.54L61.43 48.54L61.43 48.54Q61.40 48.68 61.23 48.68L61.23 48.68L60.89 48.61L60.23 48.78L59.84 48.71L59.42 48.78L59.28 48.78L57.91 48.97L57.91 48.97Q56.69 48.97 56.69 48.14L56.69 48.14L56.69 48.14Q56.69 47.80 56.91 47.29L56.91 47.29L56.91 47.29Q57.67 45.51 64.53 34.33L64.53 34.33L64.53 34.33Q60.01 34.45 55.62 34.45L55.62 34.45L50.37 34.42L50.37 34.42Q49.07 36.50 46.83 40.31L46.83 40.31L46.83 40.31Q41.97 48.61 41.65 48.69L41.65 48.69L41.65 48.69Q41.33 48.78 41.14 48.78L41.14 48.78L41.14 48.78Q40.94 48.78 40.77 48.55L40.77 48.55L40.77 48.55Q40.60 48.32 40.54 48.32L40.54 48.32L40.54 48.32Q40.48 48.32 40.28 48.41L40.28 48.41L40.28 48.41Q40.09 48.51 39.72 48.51L39.72 48.51L39.16 48.49L38.94 48.34L38.94 48.34Q38.92 48.34 38.88 48.41L38.88 48.41L38.88 48.41Q38.84 48.49 38.70 48.49L38.70 48.49L38.70 48.49Q37.65 48.49 37.65 47.61L37.65 47.61L37.65 47.61Q37.65 47.02 38.06 46.07L38.06 46.07L38.06 46.07Q38.48 45.12 39.15 43.99L39.15 43.99L39.15 43.99Q39.82 42.87 42.61 38.68L42.61 38.68L42.61 38.68Q45.41 34.50 45.41 34.47L45.41 34.47L45.41 34.47Q44.95 34.45 44.34 34.42L44.34 34.42L44.34 34.42Q43.09 34.42 42.58 34.33L42.58 34.33L42.58 34.33Q41.19 34.08 40.67 32.03L40.67 32.03L40.67 32.03Q40.41 31.03 40.43 30.71L40.43 30.71L40.43 30.71Q40.43 30.05 40.99 30.05L40.99 30.05L41.63 30.22L41.63 30.22Q42.11 30.25 43.97 30.35L43.97 30.35L43.97 30.35Q45.83 30.44 46.63 30.44L46.63 30.44L48.02 30.40L48.02 30.40Q51.20 25.42 55.62 19.14L55.62 19.14L55.62 19.14Q52.39 21.78 48.46 21.78L48.46 21.78L48.46 21.78Q46.61 21.78 45.26 20.89L45.26 20.89L45.26 20.89Q43.92 20.00 43.92 18.63L43.92 18.63L43.92 18.63Q43.92 17.26 44.95 16.47L44.95 16.47L44.95 16.47Q45.97 15.67 46.90 15.67L46.90 15.67L46.90 15.67Q47.83 15.67 47.83 15.97L47.83 15.97L47.83 15.97Q47.83 16.06 47.57 16.19L47.57 16.19L47.57 16.19Q47.31 16.31 47.31 16.43L47.31 16.43L47.31 16.43Q47.31 16.82 48.17 17.13L48.17 17.13L48.17 17.13Q49.02 17.43 50.09 17.43L50.09 17.43L50.09 17.43Q51.15 17.43 52.71 16.81L52.71 16.81L52.71 16.81Q54.27 16.19 55.96 15.21L55.96 15.21L55.96 15.21Q58.30 13.84 59.67 12.94L59.67 12.94L59.67 12.94Q60.45 12.55 61.13 12.55L61.13 12.55L61.13 12.55Q61.82 12.55 62.12 12.71L62.12 12.71L62.12 12.71Q62.43 12.87 62.57 13.02L62.57 13.02L62.57 13.02Q62.72 13.18 62.89 13.44L62.89 13.44L62.89 13.44Q63.06 13.70 63.22 13.83L63.22 13.83L63.22 13.83Q63.38 13.96 63.38 14.14L63.38 14.14L63.38 14.14Q63.38 14.31 63.20 14.67L63.20 14.67L63.20 14.67Q63.01 15.04 61.33 17.64L61.33 17.64L61.33 17.64Q59.64 20.24 56.99 24.28L56.99 24.28L56.99 24.28Q54.35 28.32 53.13 30.22L53.13 30.22L53.13 30.22Q59.64 30.22 67.21 29.98L67.21 29.98L67.21 29.98Q76.42 15.45 76.93 14.75L76.93 14.75L76.93 14.75Q77.44 14.04 77.86 13.82L77.86 13.82L77.86 13.82Q78.27 13.60 78.88 13.60L78.88 13.60ZM120.14 39.58L120.14 39.58L120.34 40.50L120.34 40.50Q120.34 41.09 119.73 41.89L119.73 41.89L119.73 41.89Q118.12 43.99 114.56 46.72L114.56 46.72L114.56 46.72Q111.01 49.44 109.33 49.44L109.33 49.44L109.33 49.44Q107.64 49.44 106.69 48.45L106.69 48.45L106.69 48.45Q105.74 47.46 105.74 46.19L105.74 46.19L105.74 46.19Q105.74 44.68 108.91 39.50L108.91 39.50L108.91 39.50Q113.67 31.81 121.07 21.53L121.07 21.53L121.07 21.53Q119.51 23.14 112.77 30.22L112.77 30.22L112.77 30.22Q97.85 45.85 95.34 47.92L95.34 47.92L95.34 47.92Q94.92 48.27 94.13 48.27L94.13 48.27L94.13 48.27Q93.33 48.27 92.46 47.62L92.46 47.62L92.46 47.62Q91.58 46.97 91.58 46.17L91.58 46.17L91.58 46.04L91.58 46.04Q91.67 45.02 96.29 36.01L96.29 36.01L96.29 36.01Q100.90 27.00 104.03 21.68L104.03 21.68L104.03 21.68Q99.41 26.76 94.70 33.01L94.70 33.01L94.70 33.01Q85.74 44.87 81.59 53.22L81.59 53.22L81.59 53.22Q81.23 54.00 80.69 54.00L80.69 54.00L80.69 54.00Q80.15 54.00 79.13 53.74L79.13 53.74L79.13 53.74Q76.98 53.15 76.98 51.68L76.98 51.68L76.98 51.68Q76.98 50.81 80.57 45.40L80.57 45.40L80.57 45.40Q84.16 39.99 88.89 33.58L88.89 33.58L88.89 33.58Q93.63 27.17 98.71 21.24L98.71 21.24L98.71 21.24Q105.71 13.04 107.71 13.04L107.71 13.04L107.71 13.04Q108.03 13.04 108.33 13.20L108.33 13.20L108.33 13.20Q108.62 13.35 108.69 13.35L108.69 13.35L108.69 13.35Q108.76 13.35 108.84 13.28L108.84 13.28L108.84 13.28Q109.16 12.89 110.10 12.89L110.10 12.89L110.10 12.89Q111.04 12.89 111.93 13.26L111.93 13.26L111.93 13.26Q112.82 13.62 112.82 14.09L112.82 14.09L112.82 14.09Q112.82 14.38 110.38 18.75L110.38 18.75L110.38 18.75Q102.20 33.25 99.39 38.67L99.39 38.67L99.39 38.67Q102.08 35.42 107.07 30.05L107.07 30.05L107.07 30.05Q112.06 24.68 117.55 19.34L117.55 19.34L117.55 19.34Q124.71 12.40 126.10 12.40L126.10 12.40L126.10 12.40Q126.66 12.40 127.51 12.65L127.51 12.65L127.51 12.65Q129.03 13.09 130.42 13.09L130.42 13.09L130.42 13.09Q130.81 13.16 131.09 13.42L131.09 13.42L131.09 13.42Q131.37 13.67 131.37 13.94L131.37 13.94L131.37 13.94Q131.37 14.21 131.23 14.38L131.23 14.38L131.23 14.38Q123.29 24.93 117.85 32.98L117.85 32.98L117.85 32.98Q112.40 41.04 111.13 43.87L111.13 43.87L111.13 43.87Q113.70 43.33 118.77 37.74L118.77 37.74L118.77 37.74Q118.99 37.45 119.09 37.35L119.09 37.35L119.09 37.35Q119.19 37.26 119.26 37.16L119.26 37.16L119.26 37.16Q119.68 36.67 119.90 37.77L119.90 37.77L119.90 37.77Q120.00 38.40 120.03 38.66L120.03 38.66L120.03 38.66Q120.07 38.92 120.10 39.20L120.10 39.20L120.10 39.20Q120.14 39.48 120.14 39.58ZM140.04 30.03L140.04 30.03L140.04 30.03Q141.89 30.03 141.89 31.30L141.89 31.30L141.89 31.30Q141.89 31.98 141.58 32.30L141.58 32.30L141.58 32.30Q141.26 32.62 140.22 34.41L140.22 34.41L140.22 34.41Q139.18 36.21 137.93 39.00L137.93 39.00L137.93 39.00Q136.67 41.80 136.30 43.77L136.30 43.77L136.30 43.77Q136.23 44.02 136.23 44.46L136.23 44.46L136.23 44.46Q136.23 45.80 136.96 45.80L136.96 45.80L136.96 45.80Q137.70 45.80 138.70 45.10L138.70 45.10L138.70 45.10Q139.70 44.41 140.48 43.62L140.48 43.62L140.48 43.62Q141.26 42.82 142.00 41.99L142.00 41.99L142.00 41.99Q142.75 41.16 142.90 41.04L142.90 41.04L142.90 41.04Q143.04 40.92 143.33 40.92L143.33 40.92L143.33 40.92Q143.80 40.92 143.90 41.63L143.90 41.63L143.90 41.63Q143.99 42.33 143.99 43.09L143.99 43.09L143.99 43.09Q143.99 43.85 143.85 44.14L143.85 44.14L143.85 44.14Q143.14 45.53 140.73 47.49L140.73 47.49L140.73 47.49Q138.33 49.44 136.36 49.44L136.36 49.44L136.36 49.44Q134.40 49.44 133.47 48.24L133.47 48.24L133.47 48.24Q132.54 47.05 132.54 45.59L132.54 45.59L132.54 45.59Q132.54 44.14 133.03 43.04L133.03 43.04L133.03 43.04Q131.01 45.68 128.38 47.51L128.38 47.51L128.38 47.51Q125.76 49.34 124.10 49.34L124.10 49.34L124.10 49.34Q122.44 49.34 121.39 48.34L121.39 48.34L121.39 48.34Q120.04 47.09 120.04 44.89L120.04 44.89L120.04 44.89Q120.04 42.68 121.03 40.44L121.03 40.44L121.03 40.44Q122.02 38.21 123.63 36.36L123.63 36.36L123.63 36.36Q125.24 34.52 127.17 33.01L127.17 33.01L127.17 33.01Q131.23 29.83 134.64 29.83L134.64 29.83L134.64 29.83Q135.96 29.83 136.79 30.27L136.79 30.27L136.79 30.27Q137.62 30.71 137.84 31.37L137.84 31.37L137.84 31.37Q138.43 30.49 138.83 30.26L138.83 30.26L138.83 30.26Q139.23 30.03 140.04 30.03ZM136.79 32.74L136.79 32.74L136.79 32.74Q132.62 32.74 128.15 37.38L128.15 37.38L128.15 37.38Q126.56 39.04 125.23 41.36L125.23 41.36L125.23 41.36Q123.90 43.68 123.90 44.53L123.90 44.53L123.90 44.53Q123.90 45.39 124.39 45.39L124.39 45.39L124.39 45.39Q125.07 45.39 128.20 42.69L128.20 42.69L128.20 42.69Q131.32 39.99 132.35 38.72L132.35 38.72L132.35 38.72Q133.47 37.30 136.79 32.74ZM157.42 17.29L158.57 17.14L159.57 17.38L159.57 17.38Q159.79 17.38 159.96 17.60L159.96 17.60L159.96 17.60Q160.13 17.82 160.13 18.02L160.13 18.02L160.13 18.02Q160.13 18.21 159.62 19.07L159.62 19.07L159.62 19.07Q159.11 19.92 158.41 21.01L158.41 21.01L158.41 21.01Q157.71 22.09 157.67 22.19L157.67 22.19L157.67 22.19Q159.57 22.05 160.36 22.05L160.36 22.05L160.36 22.05Q161.16 22.05 161.45 22.16L161.45 22.16L161.45 22.16Q161.74 22.27 162.12 22.77L162.12 22.77L162.12 22.77Q162.50 23.27 162.82 23.52L162.82 23.52L162.82 23.52Q163.13 23.78 163.13 24.29L163.13 24.29L163.13 24.29Q163.13 24.80 162.51 25.16L162.51 25.16L162.51 25.16Q161.89 25.51 161.18 25.59L161.18 25.59L161.18 25.59Q155.52 26.15 154.93 26.17L154.93 26.17L154.93 26.17Q152.95 29.20 149.40 35.61L149.40 35.61L149.40 35.61Q145.85 42.02 145.63 43.63L145.63 43.63L145.63 43.63Q145.53 44.36 145.53 44.82L145.53 44.82L145.53 44.82Q145.53 45.78 146.53 45.78L146.53 45.78L146.53 45.78Q147.53 45.78 148.75 45.01L148.75 45.01L148.75 45.01Q149.98 44.24 151.00 43.33L151.00 43.33L151.00 43.33Q153.74 40.89 153.93 40.89L153.93 40.89L153.93 40.89Q154.57 40.89 154.57 43.09L154.57 43.09L154.57 43.09Q154.57 44.29 153.47 45.24L153.47 45.24L153.47 45.24Q151.00 47.36 149.32 48.44L149.32 48.44L149.32 48.44Q147.63 49.51 145.95 49.51L145.95 49.51L145.95 49.51Q145.58 49.51 145.26 49.44L145.26 49.44L145.26 49.44Q143.31 49.07 142.40 48.01L142.40 48.01L142.40 48.01Q141.48 46.95 141.49 45.14L141.49 45.14L141.49 45.14Q141.50 43.33 142.57 40.76L142.57 40.76L142.57 40.76Q143.63 38.18 145.24 35.28L145.24 35.28L145.24 35.28Q147.88 30.54 150.51 26.39L150.51 26.39L149.58 26.51L149.58 26.51Q146.75 26.83 146.29 26.83L146.29 26.83L146.07 26.83L146.07 26.83Q145.36 26.83 144.70 26.55L144.70 26.55L144.70 26.55Q144.04 26.27 144.04 25.85L144.04 25.85L144.04 25.85Q144.04 25.44 144.40 25.05L144.40 25.05L144.40 25.05Q144.75 24.66 144.82 24.44L144.82 24.44L144.82 24.44Q145.00 23.90 146.11 23.24L146.11 23.24L146.11 23.24Q147.22 22.58 147.78 22.55L147.78 22.55L147.78 22.55Q148.34 22.51 148.86 22.49L148.86 22.49L148.86 22.49Q149.39 22.46 150.04 22.44L150.04 22.44L150.04 22.44Q150.68 22.41 151.03 22.39L151.03 22.39L153.22 22.29L153.22 22.29Q155.27 19.21 156.04 18.33L156.04 18.33L156.04 18.33Q156.81 17.46 156.93 17.37L156.93 17.37L156.93 17.37Q157.06 17.29 157.42 17.29L157.42 17.29ZM168.40 43.16L168.40 43.16L168.40 43.16Q169.65 42.36 170.02 42.05L170.02 42.05L170.02 42.05Q170.39 41.75 170.87 41.33L170.87 41.33L170.87 41.33Q171.36 40.92 171.68 40.92L171.68 40.92L171.68 40.92Q172.17 40.92 172.17 42.03L172.17 42.03L172.17 42.03Q172.17 43.14 171.08 44.42L171.08 44.42L171.08 44.42Q170.00 45.70 168.38 46.59L168.38 46.59L168.38 46.59Q166.77 47.49 164.94 48.14L164.94 48.14L164.94 48.14Q161.30 49.49 158.75 49.49L158.75 49.49L158.75 49.49Q156.20 49.49 154.15 47.81L154.15 47.81L154.15 47.81Q152.10 46.14 152.10 43.44L152.10 43.44L152.10 43.44Q152.10 40.75 153.44 38.05L153.44 38.05L153.44 38.05Q154.79 35.35 156.90 33.31L156.90 33.31L156.90 33.31Q159.01 31.27 161.80 30.00L161.80 30.00L161.80 30.00Q164.60 28.74 167.33 28.74L167.33 28.74L167.33 28.74Q168.65 28.74 169.70 29.49L169.70 29.49L169.70 29.49Q170.75 30.25 170.75 31.57L170.75 31.57L170.75 31.57Q170.75 32.89 169.45 34.73L169.45 34.73L169.45 34.73Q168.14 36.57 166.80 36.57L166.80 36.57L166.80 36.57Q165.23 36.57 165.23 35.08L165.23 35.08L165.23 35.08Q165.23 34.69 165.97 33.69L165.97 33.69L165.97 33.69Q166.70 32.69 166.70 32.34L166.70 32.34L166.70 32.34Q166.70 31.98 166.43 31.98L166.43 31.98L166.43 31.98Q165.09 31.98 163.55 32.91L163.55 32.91L163.55 32.91Q162.01 33.84 160.75 34.86L160.75 34.86L160.75 34.86Q159.50 35.89 158.37 37.16L158.37 37.16L158.37 37.16Q155.93 39.92 155.93 42.90L155.93 42.90L155.93 42.90Q155.93 44.09 156.70 44.96L156.70 44.96L156.70 44.96Q157.47 45.83 159.29 45.83L159.29 45.83L159.29 45.83Q161.11 45.83 162.94 45.40L162.94 45.40L162.94 45.40Q164.77 44.97 165.95 44.47L165.95 44.47L165.95 44.47Q167.14 43.97 168.40 43.16ZM192.24 41.38L192.24 41.38L192.24 41.38Q192.41 42.50 192.41 43.15L192.41 43.15L192.41 43.15Q192.41 43.80 192.18 44.27L192.18 44.27L192.18 44.27Q191.94 44.75 191.15 45.62L191.15 45.62L191.15 45.62Q190.36 46.48 189.26 47.36L189.26 47.36L189.26 47.36Q186.57 49.49 183.76 49.49L183.76 49.49L183.76 49.49Q179.74 49.49 179.74 45.92L179.74 45.92L179.74 45.92Q179.74 42.82 185.13 33.57L185.13 33.57L185.13 33.57Q185.33 33.23 185.40 33.08L185.40 33.08L185.40 33.08Q183.52 34.40 178.21 40.27L178.21 40.27L178.21 40.27Q172.90 46.14 171.14 48.58L171.14 48.58L171.14 48.58Q171.00 48.80 170.41 49.07L170.41 49.07L170.41 49.07Q169.82 49.34 169.49 49.34L169.49 49.34L169.49 49.34Q169.17 49.34 168.79 49.13L168.79 49.13L168.79 49.13Q168.41 48.93 168.31 48.93L168.31 48.93L168.31 48.93Q167.99 48.93 167.99 48.72L167.99 48.72L167.99 48.72Q167.99 48.51 168.86 46.47L168.86 46.47L168.86 46.47Q169.73 44.43 171.14 41.41L171.14 41.41L171.14 41.41Q175.02 33.06 182.69 19.68L182.69 19.68L182.69 19.68Q185.38 14.99 186.89 13.04L186.89 13.04L186.89 13.04Q187.96 11.65 190.50 11.65L190.50 11.65L190.50 11.65Q191.04 11.65 191.11 11.96L191.11 11.96L191.11 11.96Q191.19 12.28 191.19 12.65L191.19 12.65L191.19 12.65Q191.19 13.01 191.04 13.38L191.04 13.38L188.43 17.46L188.43 17.46Q180.66 29.57 176.73 37.52L176.73 37.52L176.73 37.52Q180.54 32.89 184.13 30.37L184.13 30.37L184.13 30.37Q186.35 28.78 187.46 28.78L187.46 28.78L187.46 28.78Q188.57 28.78 189.48 29.14L189.48 29.14L189.48 29.14Q190.38 29.49 190.38 30.83L190.38 30.83L190.38 30.83Q190.38 31.32 188.79 34.45L188.79 34.45L188.79 34.45Q184.03 43.82 184.03 44.86L184.03 44.86L184.03 44.86Q184.03 45.90 184.89 45.90L184.89 45.90L184.89 45.90Q186.13 45.90 188.72 43.48L188.72 43.48L188.72 43.48Q190.67 41.65 191.19 41.14L191.19 41.14L191.19 41.14Q191.48 40.92 191.72 40.92L191.72 40.92L191.72 40.92Q192.19 40.92 192.24 41.38Z" transform="rotate(-7 98.78000497817993 32.82499885559082)"/></svg>